<svg xmlns="http://www.w3.org/2000/svg" width="20" height="20" viewBox="0 0 20 20"><g transform="translate(-1499 -2781)"><circle cx="10" cy="10" r="10" transform="translate(1499 2781)" fill="#212121"/><path d="M12.964,4.527a4.4,4.4,0,0,0-.279-1.457A3.075,3.075,0,0,0,10.93,1.315a4.4,4.4,0,0,0-1.456-.279C8.833,1.007,8.629,1,7,1s-1.833.007-2.473.036a4.4,4.4,0,0,0-1.457.279A3.074,3.074,0,0,0,1.314,3.07a4.4,4.4,0,0,0-.279,1.456C1.007,5.167,1,5.371,1,7s.007,1.833.036,2.473a4.4,4.4,0,0,0,.279,1.457A3.075,3.075,0,0,0,3.07,12.685a4.4,4.4,0,0,0,1.456.279C5.167,12.993,5.371,13,7,13s1.833-.007,2.473-.036a4.4,4.4,0,0,0,1.457-.279,3.068,3.068,0,0,0,1.755-1.755,4.4,4.4,0,0,0,.279-1.456C12.993,8.833,13,8.629,13,7S12.993,5.167,12.964,4.527Zm-1.08,4.9a3.319,3.319,0,0,1-.207,1.113,1.987,1.987,0,0,1-1.139,1.139,3.319,3.319,0,0,1-1.114.207c-.633.029-.823.035-2.425.035s-1.792-.006-2.425-.035a3.319,3.319,0,0,1-1.113-.207,1.983,1.983,0,0,1-1.139-1.139,3.319,3.319,0,0,1-.207-1.114C2.087,8.791,2.081,8.6,2.081,7s.006-1.792.035-2.425a3.319,3.319,0,0,1,.207-1.113A1.983,1.983,0,0,1,3.461,2.323a3.319,3.319,0,0,1,1.114-.207C5.209,2.087,5.4,2.081,7,2.081s1.792.006,2.425.035a3.319,3.319,0,0,1,1.113.207,1.983,1.983,0,0,1,1.139,1.139,3.319,3.319,0,0,1,.207,1.114c.029.633.035.823.035,2.425S11.913,8.792,11.884,9.425ZM7,3.919A3.081,3.081,0,1,0,10.081,7,3.081,3.081,0,0,0,7,3.919ZM7,9A2,2,0,1,1,9,7,2,2,0,0,1,7,9Zm3.923-5.2a.72.72,0,1,1-.72-.72A.72.72,0,0,1,10.923,3.8Z" transform="translate(1502 2784)" fill="#f6f3e4"/></g></svg>