<svg xmlns="http://www.w3.org/2000/svg" width="20" height="20" viewBox="0 0 20 20"><g transform="translate(-1561 -2762)"><circle cx="10" cy="10" r="10" transform="translate(1561 2762)" fill="#212121"/><path d="M20.221,12.874V10.78a2.936,2.936,0,0,1-2.213-.771,3.282,3.282,0,0,1-.785-2.08V7.778l-1.98-.048v8.508a1.844,1.844,0,1,1-1.195-2.069V12.141a3.924,3.924,0,0,0-.627-.052,3.821,3.821,0,1,0,3.821,3.821,3.894,3.894,0,0,0-.03-.468V12.067A5.34,5.34,0,0,0,20.221,12.874Z" transform="translate(1556.4 2758.27)" fill="#f6f3e4"/></g></svg>