<svg xmlns="http://www.w3.org/2000/svg" width="20" height="20" viewBox="0 0 20 20"><path d="M13.83,16.815l3.395-2.037L13.83,12.741Z" transform="translate(-5.186 -4.778)" fill="#212121"/><path d="M10,0A10,10,0,1,0,20,10,10,10,0,0,0,10,0Zm5.43,10.438a18.648,18.648,0,0,1-.109,1.875,2.61,2.61,0,0,1-.431,1.149,1.506,1.506,0,0,1-1.088.491c-1.52.116-3.8.12-3.8.12s-2.824-.028-3.693-.116a1.777,1.777,0,0,1-1.2-.495,2.6,2.6,0,0,1-.431-1.149,18.632,18.632,0,0,1-.109-1.875V9.559a18.628,18.628,0,0,1,.109-1.874A2.618,2.618,0,0,1,5.11,6.534,1.5,1.5,0,0,1,6.2,6.044c1.519-.117,3.8-.117,3.8-.117h0s2.28,0,3.8.117a1.5,1.5,0,0,1,1.088.49,2.61,2.61,0,0,1,.431,1.151,18.648,18.648,0,0,1,.109,1.875v.879Z" fill="#212121"/></svg>